<svg width="240" height="340" viewBox="0 0 240 340" fill="none" xmlns="http://www.w3.org/2000/svg">
<rect width="240" height="340" fill="#D9D9D9"/>
<path d="M22.56 162.2H25.488L32.976 173.6H33.024V162.2H36.168V179H33.24L25.752 167.624H25.704V179H22.56V162.2ZM39.0544 176.24V164.96L41.8144 162.2H50.4544L53.2144 164.96V176.24L50.4544 179H41.8144L39.0544 176.24ZM48.7264 176.216L49.9504 174.992V166.208L48.7264 164.984H43.5424L42.3184 166.208V174.992L43.5424 176.216H48.7264ZM62.3981 176.24V164.96L65.1581 162.2H73.3661L76.0781 164.912V167.48H72.8141V166.112L71.6861 164.984H66.8861L65.6621 166.208V174.992L66.8861 176.216H71.6861L72.8141 175.088V173.72H76.0781V176.288L73.3661 179H65.1581L62.3981 176.24ZM78.1247 176.24V164.96L80.8847 162.2H89.5247L92.2847 164.96V176.24L89.5247 179H80.8847L78.1247 176.24ZM87.7967 176.216L89.0207 174.992V166.208L87.7967 164.984H82.6127L81.3887 166.208V174.992L82.6127 176.216H87.7967ZM93.4978 162.2H96.8578L101.034 175.112H101.082L105.258 162.2H108.618L102.642 179H99.4738L93.4978 162.2ZM110.427 162.2H122.571V164.96H113.691V169.208H121.875V171.92H113.691V176.24H122.571V179H110.427V162.2ZM138.182 173.432V179H134.918V174.176L133.478 172.568H128.246V179H124.982V162.2H135.518L138.086 164.792V169.88L136.454 171.536L138.182 173.432ZM128.246 169.88H134.03L134.87 169.04V165.776L134.03 164.936H128.246V169.88ZM147.836 162.2H151.1V179H147.836V162.2ZM154.349 162.2H157.373L162.365 173.048H162.413L167.429 162.2H170.453V179H167.309V168.776H167.261L163.397 176.648H161.381L157.541 168.776H157.493V179H154.349V162.2ZM178.272 162.2H181.248L187.392 179H184.08L182.712 175.28H176.808L175.44 179H172.128L178.272 162.2ZM181.992 172.592L179.76 166.208H179.712L177.552 172.592H181.992ZM188.492 176.24V164.96L191.252 162.2H199.604L202.316 164.912V167.48H199.052V166.112L197.924 164.984H192.98L191.756 166.208V174.992L192.98 176.216H197.972L199.148 175.04V172.424H195.548V169.64H202.316V176.24L199.556 179H191.252L188.492 176.24ZM204.951 162.2H217.095V164.96H208.215V169.208H216.399V171.92H208.215V176.24H217.095V179H204.951V162.2Z" fill="#414141"/>
</svg>
